<svg xmlns="http://www.w3.org/2000/svg" width="2400" height="2400" viewBox="0 0 2400 2400">
<metadata>{"audio_features": {"acousticness": 0.361, "danceability": 0.387, "duration_ms": 404213, "energy": 0.595, "instrumentalness": 1.1e-05, "key": 2, "liveness": 0.174, "loudness": -5.67, "mode": 1, "speechiness": 0.0389, "tempo": 119.38, "time_signature": 3, "valence": 0.151}, "cache_fetched_at": "2026-07-24T08:01:29Z", "config_version": "2", "generator": "geomusic", "parameters": {"cell_count": 10, "composition": "square", "config_version": "2", "displaced": true, "features": {"acousticness": 0.361, "danceability": 0.387, "duration_ms": 404213, "energy": 0.595, "instrumentalness": 1.1e-05, "key": 2, "liveness": 0.174, "loudness": -5.67, "mode": 1, "speechiness": 0.0389, "tempo": 119.38, "time_signature": 3, "valence": 0.151}, "flags": [true, false, false, true], "key": 2, "mode": 1, "pitch": "D", "radius_frac": 0.78727, "renderer_version": "0.1.0", "track_id": "6Jv7kjGkhY2fT4yuBF3aTz", "x_scale": 1.0980249999999998, "y_scale": 0.80814}, "renderer_version": "0.1.0", "spotify_url": "https://open.spotify.com/track/6Jv7kjGkhY2fT4yuBF3aTz", "track": {"album": "Grace", "artists": ["Jeff Buckley"], "id": "6Jv7kjGkhY2fT4yuBF3aTz", "name": "Lover, You Should've Come Over", "spotify_url": "https://open.spotify.com/track/6Jv7kjGkhY2fT4yuBF3aTz"}, "track_id": "6Jv7kjGkhY2fT4yuBF3aTz"}</metadata>
<defs>
<clipPath id="clip0"><rect x="671.42" y="1200" width="264.29" height="264.29"/></clipPath>
<clipPath id="clip1"><rect x="671.42" y="1464.29" width="264.29" height="264.29"/></clipPath>
<clipPath id="clip2"><rect x="935.71" y="1464.29" width="264.29" height="264.29"/></clipPath>
<clipPath id="clip3"><rect x="1200" y="1200" width="528.58" height="528.58"/></clipPath>
<clipPath id="clip4"><rect x="1200" y="671.42" width="528.58" height="528.58"/></clipPath>
<clipPath id="clip5"><rect x="671.42" y="671.42" width="264.29" height="264.29"/></clipPath>
<clipPath id="clip6"><rect x="935.71" y="671.42" width="264.29" height="264.29"/></clipPath>
<clipPath id="clip7"><rect x="671.42" y="935.71" width="264.29" height="264.29"/></clipPath>
<clipPath id="clip8"><rect x="935.71" y="935.71" width="264.29" height="264.29"/></clipPath>
<clipPath id="clip9"><rect x="671.42" y="671.42" width="1057.16" height="528.58"/></clipPath>
<clipPath id="clip10"><rect x="671.42" y="1200" width="1057.16" height="528.58"/></clipPath>
</defs>
<g id="background">
<rect x="0" y="0" width="2400" height="2400" fill="#ffffff"/>
<rect x="212" y="212" width="1976" height="1976" fill="#ffd4d4"/>
</g>
<g id="cell_bg">
<rect x="671.42" y="1200" width="264.29" height="264.29" fill="#b57a31"/>
<rect x="935.71" y="1200" width="264.29" height="264.29" fill="#f3a73b"/>
<rect x="671.42" y="1464.29" width="264.29" height="264.29" fill="#ffc5c5"/>
<rect x="935.71" y="1464.29" width="264.29" height="264.29" fill="#b57a31"/>
<rect x="1200" y="1200" width="528.58" height="528.58" fill="#ecf6fe"/>
<rect x="1200" y="671.42" width="528.58" height="528.58" fill="#ffc5c5"/>
<rect x="671.42" y="671.42" width="264.29" height="264.29" fill="#ffc5c5"/>
<rect x="935.71" y="671.42" width="264.29" height="264.29" fill="#292c6e"/>
<rect x="671.42" y="935.71" width="264.29" height="264.29" fill="#ffd4d4"/>
<rect x="935.71" y="935.71" width="264.29" height="264.29" fill="#b57a31"/>
</g>
<g id="motifs">
<ellipse cx="671.42" cy="1332.14" rx="79.64" ry="79.64" fill="#ffc5c5" clip-path="url(#clip0)"/>
<ellipse cx="935.71" cy="1332.14" rx="79.64" ry="79.64" fill="#82bdf5" clip-path="url(#clip0)"/>
<rect x="680.5" y="1505.86" width="246.13" height="181.15" fill="#ffd4d4" clip-path="url(#clip1)"/>
<polygon points="953.62,1464.29 1182.09,1464.29 1067.86,1596.43" fill="#292c6e" clip-path="url(#clip2)"/>
<polygon points="953.62,1728.58 1182.09,1728.58 1067.86,1596.43" fill="#292c6e" clip-path="url(#clip2)"/>
<polygon points="1464.29,1278.33 1716.95,1464.29 1464.29,1650.25 1211.63,1464.29" fill="#ffc5c5" clip-path="url(#clip3)"/>
<polygon points="1235.83,671.42 1692.75,671.42 1464.29,935.71" fill="#4b4a4f" clip-path="url(#clip4)"/>
<polygon points="1235.83,1200 1692.75,1200 1464.29,935.71" fill="#4b4a4f" clip-path="url(#clip4)"/>
<polygon points="935.71,671.42 935.71,935.71 671.42,935.71" fill="#ecf6fe" clip-path="url(#clip5)"/>
<ellipse cx="737.49" cy="737.49" rx="21.14" ry="21.14" fill="#b57a31" clip-path="url(#clip5)"/>
<polygon points="1067.86,719.86 1181.58,803.56 1067.86,887.27 954.13,803.56" fill="#82bdf5" clip-path="url(#clip6)"/>
<rect x="686.17" y="981.45" width="234.8" height="172.81" fill="#4b4a4f" clip-path="url(#clip7)"/>
<rect x="730.78" y="1014.28" width="145.57" height="107.14" fill="#ffc5c5" clip-path="url(#clip7)"/>
<polygon points="1067.86,981.97 1184.54,1067.86 1067.86,1153.74 951.17,1067.86" fill="#292c6e" clip-path="url(#clip8)"/>
</g>
<g id="displaced">
<ellipse cx="1067.86" cy="1200" rx="91.97" ry="91.97" fill="#ffc5c5" clip-path="url(#clip9)"/>
<ellipse cx="1067.86" cy="1200" rx="91.97" ry="91.97" fill="#b57a31" clip-path="url(#clip10)"/>
</g>
<g id="dots">
<ellipse cx="1067.86" cy="1662.51" rx="33.04" ry="33.04" fill="#ffd4d4" clip-path="url(#clip2)"/>
<ellipse cx="1332.14" cy="1596.43" rx="66.07" ry="66.07" fill="#4b4a4f" clip-path="url(#clip3)"/>
<ellipse cx="1067.86" cy="803.56" rx="33.04" ry="33.04" fill="#ecf6fe" clip-path="url(#clip6)"/>
</g>
<g id="caption">
<text x="1606" y="2277.68" text-anchor="end" font-family="Roboto, 'Helvetica Neue', Arial, sans-serif" font-size="34" fill="#8a8a8a">key = 2</text>
<rect x="1636" y="2246" width="69" height="44" fill="#ffd4d4"/>
<rect x="1705" y="2246" width="69" height="44" fill="#82bdf5"/>
<rect x="1774" y="2246" width="69" height="44" fill="#4b4a4f"/>
<rect x="1843" y="2246" width="69" height="44" fill="#f3a73b"/>
<rect x="1912" y="2246" width="69" height="44" fill="#b57a31"/>
<rect x="1981" y="2246" width="69" height="44" fill="#292c6e"/>
<rect x="2050" y="2246" width="69" height="44" fill="#ecf6fe"/>
<rect x="2119" y="2246" width="69" height="44" fill="#ffc5c5"/>
</g>
</svg>